<svg xmlns="http://www.w3.org/2000/svg" width="800" height="360" viewBox="0 0 800 360">
  <defs>
    <linearGradient id="surface" x1="0%" y1="0%" x2="100%" y2="100%">
      <stop offset="0%" stop-color="#ffffff" />
      <stop offset="100%" stop-color="#f3f3f3" />
    </linearGradient>
  </defs>
  <rect x="0" y="0" width="800" height="360" fill="url(#surface)" />
  
  <rect x="0" y="0" width="400" height="360" fill="#e6e6e6" />
  <rect x="24" y="88" width="352" height="112" rx="16" fill="#ffffff" stroke="#b3b3b3" stroke-width="2" />
  <g transform="translate(158 106) scale(3.5)" fill="#000000">
    <path d="M18.665 21.978C16.758 23.255 14.465 24 12 24 5.377 24 0 18.623 0 12S5.377 0 12 0s12 5.377 12 12c0 3.583-1.574 6.801-4.067 9.001L9.219 7.2H7.2v9.596h1.615V9.251l9.85 12.727Zm-3.332-8.533 1.6 2.061V7.2h-1.6v6.245Z"/>
  </g>
  <text x="200" y="258" text-anchor="middle" font-family="Inter, Segoe UI, Arial, sans-serif" font-size="24" font-weight="700" fill="#111111">Next.js</text>

  <rect x="400" y="0" width="400" height="360" fill="#ecfaf4" />
  <rect x="424" y="88" width="352" height="112" rx="16" fill="#ffffff" stroke="#c5f1dd" stroke-width="2" />
  <g transform="translate(558 106) scale(3.5)" fill="#3ECF8E">
    <path d="M11.9 1.036c-.015-.986-1.26-1.41-1.874-.637L.764 12.05C-.33 13.427.65 15.455 2.409 15.455h9.579l.113 7.51c.014.985 1.259 1.408 1.873.636l9.262-11.653c1.093-1.375.113-3.403-1.645-3.403h-9.642z"/>
  </g>
  <text x="600" y="258" text-anchor="middle" font-family="Inter, Segoe UI, Arial, sans-serif" font-size="24" font-weight="700" fill="#111111">Supabase</text>
  
<line x1="400" y1="28" x2="400" y2="332" stroke="#d7d7d7" stroke-width="2" />
  <text x="400" y="52" text-anchor="middle" font-family="Inter, Segoe UI, Arial, sans-serif" font-size="18" font-weight="600" fill="#5b5b5b">Customer management CRM Tech Stack</text>
</svg>
